/* XPM */
static char * icon90F_xpm[] = {
"100 100 2 1",
" 	c None",
".	c #000000",
"                                                                                                    ",
"                                                                                                    ",
"                                                                                                    ",
"                                                                                                    ",
"                                                                                                    ",
"                                                                                                    ",
"                                                                                                    ",
"                                                                                                    ",
"                                                                                                    ",
"                                                                                                    ",
"                                                                                                    ",
"                                                                                                    ",
"                                                                                                    ",
"                                                                                                    ",
"                                                                                                    ",
"                                                                                                    ",
"                                                                                                    ",
"                    ................................................................                ",
"                   ..................................................................               ",
"                  ....................................................................              ",
"                 ......................................................................             ",
"                 ......................................................................             ",
"                 ......................................................................             ",
"                 ......................................................................             ",
"                 ......................................................................             ",
"                 .....................................................................              ",
"                 ....................................................................               ",
"                 ...................................................................                ",
"                 ...........                   ...........                                          ",
"                 ...........                   ...........                                          ",
"                 ...........                   ...........                                          ",
"                 ...........                   ...........                                          ",
"                 ...........                   ...........                                          ",
"                 ...........                   ...........                                          ",
"                 ...........                   ...........                                          ",
"                 ...........                   ...........                                          ",
"                 ...........                   ...........                                          ",
"                 ...........                   ...........                                          ",
"                 ...........                   ...........                                          ",
"                 ...........                   ...........                                          ",
"                 ...........                   ...........                                          ",
"                 ...........                   ...........                                          ",
"                 ...........                   ...........                                          ",
"                 ...........                   ...........                                          ",
"                 ...........                   ...........                                          ",
"                 ...........                   ...........                                          ",
"                 ...........                   ...........                                          ",
"                 ...........                   ...........                                          ",
"                 ...........                   ...........                                          ",
"                 ...........                   ...........                                          ",
"                 ...........                   ...........                                          ",
"                 ...........                   ...........                                          ",
"                 ...........                   ...........                                          ",
"                 ...........                   ...........                                          ",
"                 ...........                    .........                                           ",
"                 ...........                    .........                                           ",
"                 ...........                     .......                                            ",
"                 ...........                       ...                                              ",
"                 ...........                                                                        ",
"                 ...........                                                                        ",
"                 ...........                                                                        ",
"                 ...........                                                                        ",
"                 ...........                                                                        ",
"                 ...........                                                                        ",
"                 ...........                                                                        ",
"                 ...........                                                                        ",
"                 ...........                                                                        ",
"                 ...........                                                                        ",
"                 ...........                                                                        ",
"                 ...........                                                                        ",
"                 ...........                                                                        ",
"                 ...........                                                                        ",
"                 ...........                                                                        ",
"                 ...........                                                                        ",
"                 ...........                                                                        ",
"                 ...........                                                                        ",
"                 ...........                                                                        ",
"                 ..........                                                                         ",
"                  .........                                                                         ",
"                   .......                                                                          ",
"                    ....                                                                            ",
"                                                                                                    ",
"                                                                                                    ",
"                                                                                                    ",
"                                                                                                    ",
"                                                                                                    ",
"                                                                                                    ",
"                                                                                                    ",
"                                                                                                    ",
"                                                                                                    ",
"                                                                                                    ",
"                                                                                                    ",
"                                                                                                    ",
"                                                                                                    ",
"                                                                                                    ",
"                                                                                                    ",
"                                                                                                    ",
"                                                                                                    ",
"                                                                                                    ",
"                                                                                                    "};
