/* XPM */
static char * icon0_xpm[] = {
"100 100 2 1",
" 	c None",
".	c #000000",
"                                                                                                    ",
"                                                                                                    ",
"                                                                                                    ",
"                                                                                                    ",
"                                                                                                    ",
"                                                                                                    ",
"                                                                                                    ",
"                                                                                                    ",
"                                                                                                    ",
"                                                                                                    ",
"                                                                                                    ",
"                                                                                                    ",
"                                                                                                    ",
"                                                                                                    ",
"                                                                                                    ",
"                                                                                                    ",
"                                                                                                    ",
"                    ..........................................................                      ",
"                   ............................................................                     ",
"                  ..............................................................                    ",
"                 ................................................................                   ",
"                 ................................................................                   ",
"                 ................................................................                   ",
"                 ................................................................                   ",
"                 ...............................................................                    ",
"                 ...............................................................                    ",
"                 ..............................................................                     ",
"                 ............................................................                       ",
"                 ...........                                                                        ",
"                 ...........                                                                        ",
"                 ...........                                                                        ",
"                 ...........                                                                        ",
"                 ...........                                                                        ",
"                 ...........                                                                        ",
"                 ...........                                                                        ",
"                 ...........                                                                        ",
"                 ...........                                                                        ",
"                 ...........                                                                        ",
"                 ...........                                                                        ",
"                 ...........                                                                        ",
"                 ...........                                                                        ",
"                 ...........                                                                        ",
"                 ...........                                                                        ",
"                 ...........                                                                        ",
"                 ...........                                                                        ",
"                 ...........                                                                        ",
"                 ...........                                                                        ",
"                 .....................................                                              ",
"                 .......................................                                            ",
"                 ........................................                                           ",
"                 ........................................                                           ",
"                 .........................................                                          ",
"                 .........................................                                          ",
"                 .........................................                                          ",
"                 ........................................                                           ",
"                 ........................................                                           ",
"                 .......................................                                            ",
"                 .....................................                                              ",
"                 ...........                                                                        ",
"                 ...........                                                                        ",
"                 ...........                                                                        ",
"                 ...........                                                                        ",
"                 ...........                                                                        ",
"                 ...........                                                                        ",
"                 ...........                                                                        ",
"                 ...........                                                                        ",
"                 ...........                                                                        ",
"                 ...........                                                                        ",
"                 ...........                                                                        ",
"                 ...........                                                                        ",
"                 ...........                                                                        ",
"                 ...........                                                                        ",
"                 ...........                                                                        ",
"                 ...........                                                                        ",
"                 ...........                                                                        ",
"                 ...........                                                                        ",
"                 ...........                                                                        ",
"                 ...........                                                                        ",
"                 ...........                                                                        ",
"                 ...........                                                                        ",
"                 ...........                                                                        ",
"                 ...........                                                                        ",
"                 ...........                                                                        ",
"                 ...........                                                                        ",
"                  .........                                                                         ",
"                   .......                                                                          ",
"                    .....                                                                           ",
"                                                                                                    ",
"                                                                                                    ",
"                                                                                                    ",
"                                                                                                    ",
"                                                                                                    ",
"                                                                                                    ",
"                                                                                                    ",
"                                                                                                    ",
"                                                                                                    ",
"                                                                                                    ",
"                                                                                                    ",
"                                                                                                    ",
"                                                                                                    "};
