/* XPM */
static char * icon180F_xpm[] = {
"100 100 2 1",
" 	c None",
".	c #000000",
"                                                                                                    ",
"                                                                                                    ",
"                                                                                                    ",
"                                                                                                    ",
"                                                                                                    ",
"                                                                                                    ",
"                                                                                                    ",
"                                                                                                    ",
"                                                                                                    ",
"                                                                                                    ",
"                                                                                                    ",
"                                                                                                    ",
"                                                                                                    ",
"                    .....                                                                           ",
"                   .......                                                                          ",
"                  .........                                                                         ",
"                 ...........                                                                        ",
"                 ...........                                                                        ",
"                 ...........                                                                        ",
"                 ...........                                                                        ",
"                 ...........                                                                        ",
"                 ...........                                                                        ",
"                 ...........                                                                        ",
"                 ...........                                                                        ",
"                 ...........                                                                        ",
"                 ...........                                                                        ",
"                 ...........                                                                        ",
"                 ...........                                                                        ",
"                 ...........                                                                        ",
"                 ...........                                                                        ",
"                 ...........                                                                        ",
"                 ...........                                                                        ",
"                 ...........                                                                        ",
"                 ...........                                                                        ",
"                 ...........                                                                        ",
"                 ...........                                                                        ",
"                 ...........                                                                        ",
"                 ...........                                                                        ",
"                 ...........                                                                        ",
"                 ...........                                                                        ",
"                 ...........                                                                        ",
"                 ...........                                                                        ",
"                 .....................................                                              ",
"                 .......................................                                            ",
"                 ........................................                                           ",
"                 ........................................                                           ",
"                 .........................................                                          ",
"                 .........................................                                          ",
"                 .........................................                                          ",
"                 ........................................                                           ",
"                 ........................................                                           ",
"                 .......................................                                            ",
"                 .....................................                                              ",
"                 ...........                                                                        ",
"                 ...........                                                                        ",
"                 ...........                                                                        ",
"                 ...........                                                                        ",
"                 ...........                                                                        ",
"                 ...........                                                                        ",
"                 ...........                                                                        ",
"                 ...........                                                                        ",
"                 ...........                                                                        ",
"                 ...........                                                                        ",
"                 ...........                                                                        ",
"                 ...........                                                                        ",
"                 ...........                                                                        ",
"                 ...........                                                                        ",
"                 ...........                                                                        ",
"                 ...........                                                                        ",
"                 ...........                                                                        ",
"                 ...........                                                                        ",
"                 ...........                                                                        ",
"                 ............................................................                       ",
"                 ..............................................................                     ",
"                 ...............................................................                    ",
"                 ...............................................................                    ",
"                 ................................................................                   ",
"                 ................................................................                   ",
"                 ................................................................                   ",
"                 ................................................................                   ",
"                  ..............................................................                    ",
"                   ............................................................                     ",
"                    ..........................................................                      ",
"                                                                                                    ",
"                                                                                                    ",
"                                                                                                    ",
"                                                                                                    ",
"                                                                                                    ",
"                                                                                                    ",
"                                                                                                    ",
"                                                                                                    ",
"                                                                                                    ",
"                                                                                                    ",
"                                                                                                    ",
"                                                                                                    ",
"                                                                                                    ",
"                                                                                                    ",
"                                                                                                    ",
"                                                                                                    ",
"                                                                                                    "};
